<svg width="24" height="20" viewBox="0 0 24 20" fill="none" xmlns="http://www.w3.org/2000/svg">
<path d="M20.3173 2.36032C18.761 1.64612 17.1189 1.13638 15.4318 0.843815C15.4165 0.841241 15.4008 0.843464 15.3868 0.85018C15.3728 0.856895 15.3613 0.867772 15.3538 0.881315C15.1423 1.25632 14.9083 1.74682 14.7448 2.13082C12.9262 1.85483 11.0764 1.85483 9.25776 2.13082C9.07538 1.70305 8.86906 1.28588 8.63976 0.881315C8.63207 0.86792 8.6205 0.857168 8.60658 0.850475C8.59266 0.843781 8.57703 0.84146 8.56177 0.843815C6.87427 1.13482 5.23176 1.64482 3.67626 2.36032C3.66295 2.3654 3.65182 2.37494 3.64476 2.38732C0.533765 7.03582 -0.319735 11.5703 0.0987651 16.0478C0.100265 16.0688 0.113765 16.0898 0.130265 16.1033C1.94185 17.4452 3.96815 18.4698 6.12276 19.1333C6.13798 19.1381 6.15432 19.1379 6.16943 19.1328C6.18454 19.1277 6.19761 19.1179 6.20677 19.1048C6.66877 18.4748 7.07976 17.8103 7.43376 17.1113C7.44114 17.0969 7.44367 17.0805 7.44097 17.0646C7.43826 17.0486 7.43048 17.034 7.41877 17.0228C7.41101 17.0155 7.40182 17.0099 7.39176 17.0063C6.74551 16.7579 6.11961 16.4595 5.51976 16.1138C5.50301 16.1043 5.49055 16.0887 5.48497 16.0703C5.47938 16.0519 5.4811 16.032 5.48977 16.0148C5.49487 16.0036 5.50259 15.9939 5.51226 15.9863C5.63826 15.8918 5.76427 15.7928 5.88426 15.6938C5.89487 15.6853 5.90758 15.6798 5.92106 15.678C5.93454 15.6761 5.94826 15.678 5.96076 15.6833C9.88927 17.4773 14.1418 17.4773 18.0223 15.6833C18.0352 15.6777 18.0495 15.6757 18.0635 15.6776C18.0775 15.6794 18.0907 15.685 18.1018 15.6938C18.2218 15.7928 18.3478 15.8918 18.4738 15.9863C18.484 15.9938 18.4922 16.0037 18.4976 16.0151C18.5031 16.0265 18.5056 16.039 18.505 16.0517C18.5045 16.0643 18.5007 16.0766 18.4942 16.0874C18.4877 16.0983 18.4786 16.1073 18.4678 16.1138C17.8693 16.4627 17.2426 16.7608 16.5943 17.0048C16.5839 17.0086 16.5745 17.0145 16.5668 17.0223C16.559 17.0301 16.553 17.0395 16.5493 17.0498C16.5458 17.0598 16.5444 17.0705 16.5452 17.081C16.546 17.0916 16.5489 17.1019 16.5538 17.1113C16.9138 17.8088 17.3263 18.4748 17.7793 19.1048C17.7884 19.1179 17.8015 19.1277 17.8166 19.1328C17.8317 19.1379 17.8481 19.1381 17.8633 19.1333C20.0215 18.4719 22.0511 17.4472 23.8648 16.1033C23.8738 16.097 23.8814 16.0888 23.8869 16.0792C23.8923 16.0696 23.8955 16.0588 23.8963 16.0478C24.3973 10.8713 23.0578 6.37432 20.3473 2.38882C20.3445 2.38223 20.3405 2.3763 20.3353 2.37139C20.3301 2.36648 20.324 2.36271 20.3173 2.36032ZM8.02027 13.3208C6.83677 13.3208 5.86327 12.2348 5.86327 10.9028C5.86327 9.56931 6.81877 8.48331 8.02027 8.48331C9.23077 8.48331 10.1953 9.57832 10.1773 10.9028C10.1773 12.2348 9.22177 13.3208 8.02027 13.3208ZM15.9943 13.3208C14.8123 13.3208 13.8373 12.2348 13.8373 10.9028C13.8373 9.56931 14.7928 8.48331 15.9943 8.48331C17.2048 8.48331 18.1708 9.57832 18.1513 10.9028C18.1513 12.2348 17.2048 13.3208 15.9943 13.3208Z" fill="white"/>
</svg>
