<svg width="24" height="28" viewBox="0 0 24 28" fill="none" xmlns="http://www.w3.org/2000/svg">
<path d="M24 11H19.5V9.29C22.08 8.615 24 6.29 24 3.5H19.5V2C19.5 1.175 18.825 0.5 18 0.5H6C5.175 0.5 4.5 1.175 4.5 2V3.5H0C0 6.29 1.92 8.615 4.5 9.29V11H0C0 13.79 1.92 16.115 4.5 16.79V18.5H0C0 21.29 1.92 23.615 4.5 24.29V26C4.5 26.825 5.175 27.5 6 27.5H18C18.825 27.5 19.5 26.825 19.5 26V24.29C22.08 23.615 24 21.29 24 18.5H19.5V16.79C22.08 16.115 24 13.79 24 11ZM12 24.5C10.335 24.5 9 23.15 9 21.5C9 19.85 10.335 18.5 12 18.5C13.65 18.5 15 19.85 15 21.5C15 23.15 13.665 24.5 12 24.5ZM12 17C10.335 17 9 15.65 9 14C9 12.35 10.335 11 12 11C13.65 11 15 12.35 15 14C15 15.65 13.665 17 12 17ZM12 9.5C10.335 9.5 9 8.15 9 6.5C9 4.835 10.335 3.5 12 3.5C13.65 3.5 15 4.835 15 6.5C15 8.15 13.665 9.5 12 9.5Z" fill="#DCDCDC"/>
</svg>
